<svg width="20" height="21" viewBox="0 0 20 21" fill="none" xmlns="http://www.w3.org/2000/svg">
<g id="Badminton 1" clip-path="url(#clip0_446_683)">
<path id="Vector" d="M16.8808 16.6111C17.093 16.8233 17.093 17.1677 16.8808 17.3805C16.668 17.5927 16.3235 17.5927 16.1113 17.3805L8.61132 9.87996C8.39909 9.66774 8.39909 9.32329 8.61132 9.11107C8.82354 8.89885 9.16743 8.89885 9.3802 9.11107L16.8808 16.6111Z" fill="#55ACEE"/>
<path id="Vector_2" d="M19.7561 19.0773C20.0817 19.4029 20.0817 19.9306 19.7561 20.2556C19.4311 20.5812 18.9033 20.5812 18.5778 20.2556L15.4356 17.1134C15.11 16.7879 15.11 16.2601 15.4356 15.9351C15.7606 15.6095 16.2884 15.6095 16.6139 15.9351L19.7561 19.0773Z" fill="#292F33"/>
<g id="Group">
<path id="Vector_3" d="M1.35986 3.38883L1.75264 2.99605L8.43264 9.67216L8.03986 10.0649L1.35986 3.38883ZM2.14709 1.81661L2.53986 1.42383L9.61097 8.49494L9.21764 8.88772L2.14709 1.81661Z" fill="#99AAB5"/>
<path id="Vector_4" d="M0.575195 5.74489L5.28908 1.03101L5.68186 1.42378L0.967973 6.13767L0.575195 5.74489ZM0.967973 7.70878L6.86131 1.81656L7.25408 2.20934L1.36075 8.10212L0.967973 7.70878ZM2.14686 8.88767L8.43186 2.60267L8.82464 2.99545L2.53964 9.28045L2.14686 8.88767ZM3.71797 9.67378L9.21742 4.17378L9.6102 4.56656L4.1102 10.0666L3.71797 9.67378ZM5.28908 10.4588L10.003 5.74489L10.3958 6.13767L5.68186 10.8521L5.28908 10.4588Z" fill="#99AAB5"/>
<path id="Vector_5" d="M0.575195 4.95934L0.967973 4.56656L6.86131 10.4588L6.46853 10.8516L0.575195 4.95934ZM4.11131 1.42378L4.50353 1.03101L10.3963 6.92323L10.0035 7.31656L4.11131 1.42378Z" fill="#99AAB5"/>
</g>
<path id="Vector_6" d="M1.37093 1.87112C-0.557407 3.8 -0.361851 7.12223 1.80759 9.29167C3.97759 11.4617 7.29926 11.6567 9.22759 9.72834C11.1565 7.79945 10.9615 4.47834 8.79093 2.30834C6.62148 0.138338 3.29981 -0.0572175 1.37093 1.87112ZM8.50759 9.00778C6.98926 10.5261 4.32148 10.3211 2.54926 8.54945C0.777593 6.77778 0.573148 4.11056 2.09148 2.59167C3.61037 1.07278 6.27759 1.27834 8.04926 3.05C9.82093 4.82167 10.0265 7.48945 8.50759 9.00778Z" fill="#55ACEE"/>
<g id="Group_2">
<path id="Vector_7" d="M9.61007 8.49495C9.82729 8.71217 9.82674 9.06384 9.61007 9.2805L8.82396 10.0666C8.60729 10.2833 8.25563 10.2838 8.0384 10.0666C7.82118 9.84939 7.82118 9.49773 8.0384 9.2805L8.82396 8.49495C9.04118 8.27773 9.39285 8.27773 9.61007 8.49495Z" fill="#226699"/>
<path id="Vector_8" d="M10.0027 9.67337C10.2199 9.89059 10.2199 10.2423 10.0027 10.4595C9.78544 10.6767 9.43377 10.6767 9.21711 10.4595L8.82433 10.0667C8.60711 9.84948 8.60766 9.49781 8.82433 9.28059C9.04155 9.06337 9.39266 9.06337 9.61044 9.28059L10.0027 9.67337Z" fill="#226699"/>
</g>
<path id="Vector_9" d="M16.422 15.7444C16.7476 16.0694 16.3542 16.2044 16.0292 16.53C15.7037 16.855 15.5687 17.2477 15.2437 16.9227C14.9181 16.5972 14.9181 16.0694 15.2437 15.7444C15.5687 15.4189 16.097 15.4189 16.422 15.7444Z" fill="#226699"/>
<path id="Vector_10" d="M12.1164 2.2678C11.6825 2.70169 11.6825 3.40502 12.1164 3.83891L12.5092 4.23169L12.902 3.83891L13.6875 3.05336L14.0814 2.66058L13.6875 2.2678C13.2548 1.83391 12.5509 1.83391 12.1164 2.2678Z" fill="#BE1931"/>
<path id="Vector_11" d="M12.5112 4.23102L14.0835 2.65991L14.4762 3.05269L12.904 4.62436L12.5112 4.23102Z" fill="#99AAB5"/>
<path id="Vector_12" d="M12.9028 4.62433L14.4751 3.05322C15.2934 3.32433 19.5445 5.86933 19.3978 6.01656C18.9767 6.43822 18.3356 6.12822 18.3356 6.12822C18.3356 6.12822 18.8045 6.576 18.4006 6.97933C17.9967 7.38267 17.5501 6.91378 17.5501 6.91378C17.5501 6.91378 18.0884 7.32545 17.6328 7.78267C17.1739 8.24156 16.7651 7.69989 16.7651 7.69989C16.7651 7.69989 17.1701 8.24489 16.8195 8.596C16.4678 8.94656 15.9784 8.48545 15.9784 8.48545C15.9784 8.48545 16.2106 9.03989 15.7884 9.461C15.5873 9.66322 13.2278 5.38878 12.9028 4.62433Z" fill="#E1E8ED"/>
<path id="Vector_13" d="M14.6745 4.84605C14.9956 4.46661 17.6923 6.91661 17.219 7.38994C16.7451 7.86272 14.2884 5.30161 14.6745 4.84605ZM15.6218 8.98383C15.9995 8.73772 13.9151 5.75272 13.6579 5.96883C13.6406 5.98328 13.6329 6.00883 13.6284 6.03883C14.119 6.94217 14.7429 8.0355 15.1973 8.74272C15.384 8.93272 15.5395 9.03717 15.6218 8.98383ZM15.7729 3.85439C15.5556 4.11105 18.5418 6.1955 18.7879 5.81828C18.8518 5.71939 18.6934 5.51772 18.4234 5.27939C17.7484 4.84494 16.8368 4.29772 16.0429 3.85105C15.9095 3.81494 15.8106 3.80994 15.7729 3.85439ZM14.1123 5.44272C14.349 5.20439 16.6906 7.99217 16.3356 8.27217C15.9812 8.54994 13.8273 5.72994 14.1123 5.44272ZM15.2462 4.30883C15.0084 4.5455 17.7962 6.88661 18.0751 6.53217C18.354 6.17717 15.534 4.02328 15.2462 4.30883Z" fill="#CCD6DD"/>
</g>
<defs>
<clipPath id="clip0_446_683">
<rect width="20" height="20" fill="white" transform="translate(0 0.5)"/>
</clipPath>
</defs>
</svg>
