<svg width="20" height="21" viewBox="0 0 20 21" fill="none" xmlns="http://www.w3.org/2000/svg">
<g id="Basketball 1" clip-path="url(#clip0_446_749)">
<path id="Vector" d="M10 20.5C15.5228 20.5 20 16.0228 20 10.5C20 4.97715 15.5228 0.5 10 0.5C4.47715 0.5 0 4.97715 0 10.5C0 16.0228 4.47715 20.5 10 20.5Z" fill="#F4900C"/>
<path id="Vector_2" d="M20 9.94444H15.0106C15.115 6.88556 16.09 4.78056 17.6683 4.08556C17.4211 3.79056 17.1539 3.515 16.875 3.25C15.3028 4.12667 14.0167 6.17944 13.9006 9.94389H10.5556V0.5H9.44444V9.94444H6.09944C5.98389 6.18 4.69778 4.12722 3.12556 3.25056C2.84667 3.515 2.57889 3.79056 2.33222 4.08556C3.91056 4.78056 4.885 6.88556 4.98944 9.94444H0V11.0556H4.98944C4.885 14.1144 3.91056 16.2194 2.33222 16.9144C2.57944 17.2094 2.84667 17.485 3.12556 17.75C4.69833 16.8733 5.98389 14.8206 6.09944 11.0556H9.44444V20.5H10.5556V11.0556H13.9006C14.0167 14.82 15.3022 16.8728 16.875 17.75C17.1539 17.4856 17.4217 17.2094 17.6683 16.9144C16.09 16.2194 15.1156 14.1144 15.0106 11.0556H20V9.94444Z" fill="#231F20"/>
</g>
<defs>
<clipPath id="clip0_446_749">
<rect width="20" height="20" fill="white" transform="translate(0 0.5)"/>
</clipPath>
</defs>
</svg>
