<svg width="20" height="21" viewBox="0 0 20 21" fill="none" xmlns="http://www.w3.org/2000/svg">
<g id="Chess 1" clip-path="url(#clip0_446_754)">
<path id="Vector" d="M15.4548 19.1961C15.8109 18.8317 16.1109 18.3178 16.1109 17.6117C16.1109 15.8622 14.0859 13.86 13.3331 12.1667C12.5926 10.5 12.1642 8.90278 13.287 8.45111L13.3814 8.41056C13.7026 8.28944 13.8887 8.14944 13.8887 8C13.8887 7.74444 13.3498 7.51556 12.5031 7.36278C13.3498 6.64944 13.8887 5.58278 13.8887 4.38889C13.8887 2.24111 12.1476 0.5 9.99978 0.5C7.85201 0.5 6.11089 2.24111 6.11089 4.38889C6.11089 5.58278 6.64978 6.64944 7.49645 7.36278C6.64978 7.51556 6.11089 7.74444 6.11089 8C6.11089 8.14944 6.29701 8.28944 6.61867 8.41056C6.64978 8.42389 6.67756 8.43722 6.71256 8.45111C7.83534 8.90278 7.40701 10.5 6.66645 12.1667C5.91367 13.86 3.88867 15.8622 3.88867 17.6117C3.88867 18.3178 4.18867 18.8317 4.54478 19.1961C4.12867 19.4211 3.88867 19.675 3.88867 19.9444C3.88867 20.1394 4.01812 20.3261 4.24367 20.5H15.7553C15.9815 20.3261 16.1109 20.1394 16.1109 19.9444C16.1109 19.675 15.8709 19.4211 15.4548 19.1961Z" fill="#31373D"/>
<path id="Vector_2" d="M12.223 3.13878C12.0702 3.13878 11.923 3.05434 11.8497 2.90822C11.833 2.876 11.3686 2.02767 10.0002 2.02767C8.6319 2.02767 8.16801 2.876 8.14857 2.91267C8.0419 3.11489 7.79079 3.19545 7.58857 3.09045C7.38523 2.986 7.30301 2.73989 7.40523 2.53545C7.43245 2.481 8.09801 1.19434 10.0002 1.19434C11.9025 1.19434 12.5675 2.481 12.5952 2.536C12.6986 2.74211 12.6147 2.99211 12.4086 3.09489C12.3491 3.12489 12.2852 3.13878 12.223 3.13878ZM12.2225 8.27767C12.1808 8.27767 12.1386 8.26822 12.098 8.24822C12.0958 8.24767 11.5491 7.99989 10.0002 7.99989C8.45079 7.99989 7.90468 8.24767 7.89912 8.24989C7.7619 8.31489 7.59579 8.25711 7.52968 8.11989C7.46357 7.98322 7.51801 7.81934 7.65412 7.751C7.7169 7.71989 8.31634 7.44434 10.0002 7.44434C11.6836 7.44434 12.2836 7.71989 12.3469 7.75156C12.4841 7.82045 12.5397 7.98711 12.4713 8.12434C12.4219 8.22156 12.3241 8.27767 12.2225 8.27767ZM5.55579 19.6666C5.41468 19.6666 5.29412 19.5599 5.27968 19.4166C5.26468 19.2643 5.37579 19.1277 5.52857 19.1127C5.55579 19.1093 8.33912 18.8332 10.0002 18.8332C11.6613 18.8332 14.4441 19.1093 14.4725 19.1127C14.6247 19.1277 14.7369 19.2638 14.7208 19.4166C14.7058 19.5688 14.568 19.6827 14.4169 19.6649C14.3891 19.6621 11.6336 19.3888 10.0002 19.3888C8.36634 19.3888 5.61134 19.6621 5.58357 19.6649L5.55579 19.6666Z" fill="#66757F"/>
</g>
<defs>
<clipPath id="clip0_446_754">
<rect width="20" height="20" fill="white" transform="translate(0 0.5)"/>
</clipPath>
</defs>
</svg>
