<svg width="20" height="21" viewBox="0 0 20 21" fill="none" xmlns="http://www.w3.org/2000/svg">
<g id="Cricket 1" clip-path="url(#clip0_446_701)">
<path id="Vector" d="M19.7434 15.3216C19.7434 15.3216 20.4811 16.5516 18.2667 18.7666C16.0517 20.9811 14.8217 20.2433 14.8217 20.2433L3.9917 9.41441C3.9917 9.41441 4.53448 7.88774 5.96059 6.46108C7.38725 5.03497 8.91392 4.49219 8.91392 4.49219L19.7434 15.3216Z" fill="#D99E82"/>
<path id="Vector_2" d="M7.43777 5.96888C7.98166 6.51277 9.94999 9.36277 9.40666 9.90666C8.86277 10.45 6.01277 8.48166 5.46888 7.93777L0.54666 3.01555C0.00332683 2.47166 0.00332683 1.59055 0.54666 1.04666C1.09055 0.503327 1.97166 0.503327 2.51555 1.04666L7.43777 5.96888Z" fill="#C1694F"/>
<path id="Vector_3" d="M0.545898 3.01552L2.51534 1.04663L5.46868 3.99996L3.49979 5.96885L0.545898 3.01552Z" fill="#292F33"/>
<path id="Vector_4" d="M10.5556 20.4999C12.0897 20.4999 13.3334 19.2562 13.3334 17.7221C13.3334 16.188 12.0897 14.9443 10.5556 14.9443C9.02149 14.9443 7.77783 16.188 7.77783 17.7221C7.77783 19.2562 9.02149 20.4999 10.5556 20.4999Z" fill="#BE1931"/>
<path id="Vector_5" d="M10.5556 20.4999C10.2489 20.4999 10 20.2516 10 19.9443V15.4999C10 15.1927 10.2489 14.9443 10.5556 14.9443C10.8628 14.9443 11.1111 15.1927 11.1111 15.4999V19.9443C11.1111 20.2516 10.8628 20.4999 10.5556 20.4999Z" fill="#662113"/>
</g>
<defs>
<clipPath id="clip0_446_701">
<rect width="20" height="20" fill="white" transform="translate(0 0.5)"/>
</clipPath>
</defs>
</svg>
