<svg width="20" height="21" viewBox="0 0 20 21" fill="none" xmlns="http://www.w3.org/2000/svg">
<g id="Football 1" clip-path="url(#clip0_446_709)">
<path id="Vector" d="M10 20.5C15.5228 20.5 20 16.0228 20 10.5C20 4.97715 15.5228 0.5 10 0.5C4.47715 0.5 0 4.97715 0 10.5C0 16.0228 4.47715 20.5 10 20.5Z" fill="#F5F8FA"/>
<path id="Vector_2" d="M10.0002 6.61108C9.6935 6.61108 9.44461 6.36219 9.44461 6.05552V2.16663C9.44461 1.85996 9.6935 1.61108 10.0002 1.61108C10.3068 1.61108 10.5557 1.85996 10.5557 2.16663V6.05552C10.5557 6.36219 10.3068 6.61108 10.0002 6.61108ZM6.34294 9.11108C6.28739 9.11108 6.23072 9.10274 6.17517 9.08497L1.70794 7.67274C1.41517 7.57997 1.25294 7.2683 1.34572 6.97552C1.43794 6.68274 1.75128 6.52108 2.04294 6.6133L6.51072 8.02552C6.8035 8.1183 6.96572 8.43052 6.87294 8.72274C6.79739 8.95941 6.5785 9.11108 6.34294 9.11108ZM13.9124 8.94941C13.6713 8.94941 13.4496 8.79108 13.3791 8.5483C13.2935 8.2533 13.4629 7.94552 13.7579 7.85997L17.5079 6.77219C17.8029 6.68719 18.1107 6.85719 18.1957 7.15108C18.2813 7.44608 18.1118 7.75385 17.8168 7.83941L14.0668 8.92719C14.0157 8.94219 13.9635 8.94941 13.9124 8.94941ZM15.0241 17.2594C14.8541 17.2594 14.6874 17.1816 14.5779 17.0355L11.5452 12.9616C11.3618 12.7161 11.4129 12.3677 11.6591 12.1844C11.9046 12.0005 12.2529 12.0522 12.4363 12.2983L15.4691 16.3722C15.6524 16.6177 15.6013 16.9661 15.3552 17.1494C15.2557 17.2239 15.1391 17.2594 15.0241 17.2594ZM4.86072 17.2133C4.75128 17.2133 4.64128 17.1811 4.54405 17.1139C4.29183 16.9383 4.23017 16.5927 4.40517 16.3405L7.25239 12.2433C7.42739 11.9911 7.7735 11.9289 8.02572 12.1039C8.27794 12.2789 8.33961 12.6255 8.16461 12.8772L5.31739 16.9744C5.20961 17.1305 5.03628 17.2133 4.86072 17.2133ZM1.94461 15.5344C1.70017 15.5344 1.47572 15.3716 1.4085 15.1244L0.192944 10.6455C0.112388 10.3494 0.287388 10.0444 0.584055 9.96385C0.881277 9.88552 1.18572 10.0589 1.26572 10.355L2.48128 14.8339C2.56183 15.13 2.38683 15.435 2.09017 15.515C2.04128 15.5289 1.99239 15.5344 1.94461 15.5344ZM12.2224 19.3889H7.22239C6.91572 19.3889 6.66683 19.1405 6.66683 18.8333C6.66683 18.5261 6.91572 18.2777 7.22239 18.2777H12.2224C12.5296 18.2777 12.7779 18.5261 12.7779 18.8333C12.7779 19.1405 12.5296 19.3889 12.2224 19.3889ZM17.8479 15.5694C17.8041 15.5694 17.7591 15.5644 17.7146 15.5533C17.4168 15.48 17.2346 15.1789 17.3085 14.8811L18.4891 10.0894C18.5629 9.79163 18.8663 9.61052 19.1613 9.68274C19.4591 9.75608 19.6413 10.0572 19.5674 10.3555L18.3868 15.1472C18.3241 15.4 18.0974 15.5694 17.8479 15.5694ZM16.8402 4.77108C16.7457 4.77108 16.6502 4.74719 16.5624 4.69663L12.3613 2.26608C12.0957 2.11219 12.0046 1.77274 12.1591 1.50663C12.3118 1.24108 12.6513 1.14941 12.9179 1.30385L17.1191 3.73441C17.3846 3.8883 17.4757 4.22774 17.3213 4.49385C17.2185 4.67163 17.0318 4.77108 16.8402 4.77108ZM3.05628 4.77108C2.88294 4.77108 2.71294 4.69052 2.60461 4.53941C2.42572 4.28941 2.48239 3.94274 2.73183 3.76385L6.16961 1.2983C6.41905 1.11941 6.76628 1.17663 6.94517 1.42552C7.12405 1.67496 7.06683 2.02219 6.81794 2.20108L3.37961 4.66663C3.28128 4.73663 3.1685 4.77108 3.05628 4.77108Z" fill="#CCD6DD"/>
<path id="Vector_3" d="M14.1628 8.00889L10.1583 5.185C9.965 5.04889 9.70611 5.05 9.51333 5.18833L5.53167 8.05889C5.34111 8.19667 5.25722 8.43889 5.32333 8.665L6.71222 13.4333C6.78111 13.67 6.99833 13.8333 7.24556 13.8333H12.2222C12.4611 13.8333 12.6722 13.6811 12.7489 13.455L14.3694 8.64C14.4478 8.40722 14.3633 8.15056 14.1628 8.00889ZM0.717778 11.3567C0.75 11.3567 0.782778 11.3539 0.815 11.3478C0.978333 11.3189 1.12056 11.2183 1.20222 11.0733L3.07722 7.74C3.10556 7.68944 3.12556 7.63556 3.13722 7.57833L3.87778 3.94444C3.91111 3.78111 3.86889 3.61111 3.76333 3.48222C3.65778 3.35278 3.5 3.27778 3.33333 3.27778H3.09556C1.19167 5.09833 0 7.65778 0 10.5C0 10.6478 0.0155556 10.7917 0.0222222 10.9378L0.356667 11.2233C0.457778 11.31 0.586111 11.3567 0.717778 11.3567ZM5.89833 2.16389C5.95722 2.28556 6.07222 2.37111 6.20556 2.39278L9.74722 2.97167C9.76945 2.975 9.79222 2.97722 9.81445 2.97722C9.83667 2.97722 9.85944 2.97556 9.88222 2.97167L13.2622 2.41611C13.3733 2.39778 13.4733 2.335 13.5372 2.24167C13.6017 2.14833 13.625 2.03333 13.6028 1.92222L13.4406 1.12056C12.3667 0.726111 11.2111 0.5 10 0.5C8.65278 0.5 7.37 0.77 6.19722 1.25333L5.90778 1.78111C5.84278 1.89944 5.83944 2.04222 5.89833 2.16389ZM17.2967 3.67722L16.4611 3.62444C16.3344 3.61722 16.2083 3.66667 16.1228 3.76278C16.0383 3.85889 16.0017 3.98611 16.0256 4.11278L16.6739 7.55611C16.6833 7.60389 16.7006 7.63833 16.7256 7.68056C17.5544 9.07167 18.4767 10.6256 18.6039 10.8928C18.6172 10.9394 18.6383 10.9367 18.6672 10.9767C18.745 11.085 18.8739 11.0556 19.0072 11.0556H19.0111C19.1211 11.0556 19.1906 11.1078 19.9933 10.6372C19.9939 10.5911 20 10.5461 20 10.5C20 7.85944 18.9689 5.46444 17.2967 3.67722ZM8.07833 19.0422C8.08444 18.9317 8.04611 18.8228 7.97222 18.74L5.47222 15.9622C5.43889 15.9256 5.39944 15.8944 5.355 15.8717C2.08556 14.1667 2.025 14.1467 1.985 14.1328C1.94167 14.1189 1.89556 14.1111 1.85056 14.1111C1.55222 14.1111 1.46444 14.1472 1.19222 15.2356C2.43444 17.5406 4.555 19.3 7.10556 20.0706L7.93889 19.33C8.02167 19.2567 8.07167 19.1528 8.07833 19.0422ZM17.9856 14.2828C17.8806 14.2383 17.7606 14.2394 17.6567 14.2856L14.2772 15.7672C14.2183 15.7928 14.1661 15.8317 14.125 15.8811L11.7639 18.705C11.6922 18.7906 11.6583 18.9006 11.6683 19.0117C11.6794 19.1228 11.7333 19.225 11.8194 19.295C12.1989 19.6056 12.52 19.8672 12.8011 20.095C15.2661 19.3761 17.3311 17.735 18.6089 15.5694L18.2133 14.52C18.1733 14.4128 18.0906 14.3272 17.9856 14.2828Z" fill="#31373D"/>
</g>
<defs>
<clipPath id="clip0_446_709">
<rect width="20" height="20" fill="white" transform="translate(0 0.5)"/>
</clipPath>
</defs>
</svg>
