<svg width="20" height="21" viewBox="0 0 20 21" fill="none" xmlns="http://www.w3.org/2000/svg">
<g id="Frisbee" clip-path="url(#clip0_446_759)">
<path id="Vector" d="M19.4446 12.4589C19.4446 15.3655 15.2162 17.7222 10.0001 17.7222C4.784 17.7222 0.555664 15.3655 0.555664 12.4589C0.555664 9.55219 4.23622 6.61108 10.0001 6.61108C15.764 6.61108 19.4446 9.55219 19.4446 12.4589Z" fill="#F4900C"/>
<path id="Vector_2" d="M10.0002 16.0567C14.9094 16.0567 18.8891 13.9425 18.8891 11.3345C18.8891 8.72652 14.9094 6.6123 10.0002 6.6123C5.09102 6.6123 1.11133 8.72652 1.11133 11.3345C1.11133 13.9425 5.09102 16.0567 10.0002 16.0567Z" fill="#FFAC33"/>
<path id="Vector_3" d="M10.0002 6.79492C6.41744 6.79492 3.61133 8.17881 3.61133 9.94603C3.61133 11.7127 6.41744 13.0966 10.0002 13.0966C13.5824 13.0966 16.3891 11.7127 16.3891 9.94603C16.3891 8.17881 13.5824 6.79492 10.0002 6.79492Z" fill="#FFD983"/>
<path id="Vector_4" d="M10.0002 13.8344C13.6821 13.8344 16.6668 12.342 16.6668 10.5011C16.6668 8.66011 13.6821 7.16772 10.0002 7.16772C6.31826 7.16772 3.3335 8.66011 3.3335 10.5011C3.3335 12.342 6.31826 13.8344 10.0002 13.8344Z" fill="#FFAC33"/>
<path id="Vector_5" d="M16.111 10.5011C15.1055 12.2333 12.2221 12.7233 9.99992 12.7233C7.7777 12.7233 4.89436 12.2333 3.88881 10.5011C3.47214 9.78329 3.05547 11.1027 4.16659 12.2138C5.2777 13.325 7.7777 14.0566 9.99992 14.0566C12.2221 14.0566 14.7221 13.325 15.8333 12.2138C16.9444 11.1027 16.5277 9.78384 16.111 10.5011Z" fill="#F4900C"/>
<path id="Vector_6" d="M19.4444 1.05566C19.4444 1.05566 13.6094 0.201216 8.8655 2.16677C3.76106 4.28177 2.22217 7.72233 2.22217 7.72233C3.07828 6.86622 5.25717 6.01177 7.9905 5.66399C8.97772 3.89622 11.8627 1.55788 14.8077 1.58011C14.8077 1.58011 10.7955 2.40955 9.38606 5.53622C9.76995 5.51455 10.1588 5.50011 10.5555 5.50011C11.2883 5.50011 11.9727 5.56566 12.6122 5.66844C12.9899 4.04955 14.7183 2.18844 16.6266 1.87455C16.6266 1.87455 14.6477 2.82288 13.9349 5.95122C16.3433 6.60066 17.7777 7.72233 17.7777 7.72233C15.5555 3.27788 19.4444 1.05566 19.4444 1.05566Z" fill="#E1E8ED"/>
</g>
<defs>
<clipPath id="clip0_446_759">
<rect width="20" height="20" fill="white" transform="translate(0 0.5)"/>
</clipPath>
</defs>
</svg>
