<svg width="20" height="21" viewBox="0 0 20 21" fill="none" xmlns="http://www.w3.org/2000/svg">
<g id="Hockey 1" clip-path="url(#clip0_446_768)">
<path id="Vector" d="M2.22233 12.1667C3.56066 12.1667 3.33344 13.2778 3.33344 13.8333C3.33344 14.3889 3.33344 15.5 4.44455 15.5C5.55566 15.5 6.369 14.1306 8.33344 12.1667L20.0001 0.5V4.38889C20.0001 4.38889 12.5001 12.4444 10.0001 14.9444C7.50011 17.4444 6.11122 18.8333 4.44455 18.8333C2.49289 18.8333 0.555664 17.3861 0.555664 14.9444C0.555664 12.7222 1.66678 12.1667 2.22233 12.1667Z" fill="#C1694F"/>
<path id="Vector_2" d="M14.7224 20.5001C16.7168 20.5001 18.3336 18.8833 18.3336 16.8889C18.3336 14.8946 16.7168 13.2778 14.7224 13.2778C12.7281 13.2778 11.1113 14.8946 11.1113 16.8889C11.1113 18.8833 12.7281 20.5001 14.7224 20.5001Z" fill="#DD2E44"/>
<path id="Vector_3" d="M13.8944 10.8956C16.8077 7.81722 19.9999 4.38889 19.9999 4.38889V0.5L13.8944 6.60556V10.8956ZM12.2222 12.6544L12.7777 12.0717V7.72222L12.2222 8.27778V12.6544Z" fill="#FFAC33"/>
</g>
<defs>
<clipPath id="clip0_446_768">
<rect width="20" height="20" fill="white" transform="translate(0 0.5)"/>
</clipPath>
</defs>
</svg>
