<svg width="20" height="21" viewBox="0 0 20 21" fill="none" xmlns="http://www.w3.org/2000/svg">
<g id="Pool 1" clip-path="url(#clip0_446_715)">
<path id="Vector" d="M10 20.5C15.5228 20.5 20 16.0228 20 10.5C20 4.97715 15.5228 0.5 10 0.5C4.47715 0.5 0 4.97715 0 10.5C0 16.0228 4.47715 20.5 10 20.5Z" fill="#31373D"/>
<path id="Vector_2" d="M10 15.5C12.7614 15.5 15 13.2614 15 10.5C15 7.73858 12.7614 5.5 10 5.5C7.23858 5.5 5 7.73858 5 10.5C5 13.2614 7.23858 15.5 10 15.5Z" fill="#E1E8ED"/>
<path id="Vector_3" d="M7.61279 11.7238C7.61279 10.9427 8.04224 10.3666 8.65779 10.0344C8.1989 9.70214 7.91557 9.25325 7.91557 8.6377C7.91557 7.49492 8.86279 6.7627 10.025 6.7627C11.1578 6.7627 12.1439 7.48547 12.1439 8.6377C12.1439 9.18436 11.8706 9.73158 11.3917 10.0344C12.0556 10.3666 12.4367 10.9721 12.4367 11.7238C12.4367 13.081 11.3333 13.9505 10.0245 13.9505C8.67724 13.9505 7.61279 13.0327 7.61279 11.7238ZM9.13613 11.626C9.13613 12.1238 9.4289 12.6027 10.025 12.6027C10.5817 12.6027 10.9139 12.1244 10.9139 11.626C10.9139 11.011 10.5622 10.6494 10.025 10.6494C9.45835 10.6499 9.13613 11.0794 9.13613 11.626ZM9.32168 8.79436C9.32168 9.23381 9.57557 9.53658 10.025 9.53658C10.4745 9.53658 10.7378 9.23381 10.7378 8.79436C10.7378 8.37436 10.4839 8.05214 10.025 8.05214C9.56613 8.05214 9.32168 8.37436 9.32168 8.79436Z" fill="#31373D"/>
</g>
<defs>
<clipPath id="clip0_446_715">
<rect width="20" height="20" fill="white" transform="translate(0 0.5)"/>
</clipPath>
</defs>
</svg>
