<svg width="20" height="21" viewBox="0 0 20 21" fill="none" xmlns="http://www.w3.org/2000/svg">
<g id="Rugby 1" clip-path="url(#clip0_446_774)">
<path id="Vector" d="M15.4146 15.9144C11.4346 19.8944 4.75627 21.5705 1.62794 18.8721C-1.0704 15.7444 0.605715 9.06547 4.58572 5.08547C8.56572 1.10547 15.2446 -0.57064 18.3724 2.12769C21.6535 6.42103 19.3946 11.9344 15.4146 15.9144Z" fill="#3B88C3"/>
<path id="Vector_2" d="M19.7901 5.19507C18.9796 8.1884 14.1173 15.4467 6.3429 18.3245C5.69456 18.6023 5.74068 19.4351 6.80568 19.5278C7.19234 19.5617 8.29068 19.5578 9.63512 19.4801C11.7279 18.7628 13.7951 17.534 15.4146 15.9145C18.4951 12.834 20.5418 8.83562 19.7901 5.19507Z" fill="#CCD6DD"/>
<path id="Vector_3" d="M18.5203 2.334C18.4709 2.26511 18.4242 2.19566 18.372 2.12788C18.1265 1.91622 17.8526 1.74066 17.5665 1.58177C15.9009 0.827329 12.1253 0.445107 6.66646 4.94455C2.45368 8.41677 1.78979 12.8284 2.08312 15.454C2.1959 16.4618 3.42479 16.2245 4.49035 15.9634C8.83701 14.8995 19.2787 10.1873 18.5203 2.334Z" fill="#E1E8ED"/>
</g>
<defs>
<clipPath id="clip0_446_774">
<rect width="20" height="20" fill="white" transform="translate(0 0.5)"/>
</clipPath>
</defs>
</svg>
