<svg width="20" height="21" viewBox="0 0 20 21" fill="none" xmlns="http://www.w3.org/2000/svg">
<g id="Running 1" clip-path="url(#clip0_446_721)">
<path id="Vector" d="M8.38143 14.3089L7.42143 12.3127C7.18366 12.4422 6.16754 13.0089 5.56032 13.5555C5.20754 13.8733 5.25532 14.1122 5.36032 14.6355L5.36977 14.6827C5.47477 15.2116 6.59477 18.7666 6.74199 19.2311L7.48921 19.0455C7.49532 18.7977 7.46699 17.4883 7.3381 16.6733C7.29754 16.4161 7.25643 16.1039 7.21921 15.8277C7.17977 15.5261 7.0731 15.2239 7.04754 15.0927C7.01199 14.9072 7.11977 14.8189 7.2881 14.7372C7.76699 14.5055 8.24088 14.3705 8.38143 14.3089ZM13.2664 15.3672C12.9631 15.33 12.6514 15.3227 12.5187 15.3144C12.3303 15.3027 12.1981 15.1739 12.1614 14.99C12.057 14.4683 12.0364 14.0083 12.0125 13.8572L9.83921 14.2833C9.90477 14.5461 10.197 15.6722 10.5737 16.3977C10.792 16.8183 11.0353 16.8322 11.5681 16.8633L11.6164 16.8661C12.1581 16.8977 15.877 16.7083 16.3637 16.6833L16.372 15.9139C16.1331 15.845 14.9331 15.545 14.1114 15.465C13.8537 15.44 13.542 15.4011 13.2664 15.3672Z" fill="#F7DECE"/>
<path id="Vector_2" d="M15.447 16.99L15.3481 16.8078C15.3359 16.7784 15.3503 16.745 15.3803 16.7345C15.4753 16.7017 15.6681 16.6139 15.7353 16.5784C15.677 16.7117 15.6103 16.925 15.5359 16.9895C15.507 17.0134 15.4614 17.0245 15.447 16.99Z" fill="#8899A6"/>
<path id="Vector_3" d="M16.8877 15.5767C16.8105 15.5151 16.6338 15.4845 16.5227 15.4739C16.446 15.4667 16.246 15.4606 16.0788 15.4695C16.0033 15.4739 15.9171 15.4828 15.8816 15.4934C15.7716 15.5251 15.7233 15.5717 15.6971 15.6034C15.6655 15.6417 15.6627 15.6834 15.6699 15.7039C15.6988 15.7889 15.8388 15.9362 15.8999 16.0762C15.9205 16.1228 15.9321 16.1684 15.9277 16.2112C15.9127 16.3645 15.7171 16.5878 15.5705 16.7534C15.4827 16.8528 15.4121 16.9312 15.4094 16.9617C15.406 16.9945 15.4155 17.0223 15.4299 17.0495V17.0506C15.4699 17.1239 15.5571 17.2001 15.6171 17.4001C15.6555 17.5289 15.8366 18.1173 15.8366 18.1173C15.8799 18.2673 15.9377 18.304 15.9621 18.3845C16.0127 18.5495 16.1016 18.9923 16.146 19.1323C16.1905 19.2723 16.2966 19.3323 16.3783 19.3439C16.4599 19.3556 16.5071 19.3362 16.5071 19.3362C16.5071 19.3362 16.6988 19.2501 16.826 18.5312C16.9177 18.0117 16.8366 17.9317 16.7677 17.1517C16.6988 16.3717 16.8877 15.5767 16.8877 15.5767Z" fill="#DD551F"/>
<path id="Vector_4" d="M16.727 16.7367C16.5965 16.6834 16.2987 16.4867 16.2148 16.2751C16.1392 16.084 16.0876 15.5678 16.0781 15.4701C16.2381 15.4556 16.4842 15.4662 16.5631 15.474C16.6676 15.484 16.7876 15.4923 16.8598 15.5534L16.8876 15.5773C16.8876 15.5773 16.7603 16.3956 16.727 16.7367Z" fill="#FA743E"/>
<path id="Vector_5" d="M15.5823 17.3168C15.5418 17.3168 15.5034 17.294 15.4851 17.2551C15.4595 17.2012 15.4823 17.1368 15.5362 17.1118L15.7262 17.0218C15.7801 16.9962 15.844 17.019 15.8701 17.0729C15.8956 17.1268 15.8729 17.1912 15.819 17.2162L15.629 17.3062C15.6134 17.3134 15.5979 17.3168 15.5823 17.3168ZM15.7034 17.664C15.6579 17.664 15.6156 17.6346 15.6006 17.589C15.5829 17.5323 15.614 17.4718 15.6706 17.4534L15.8818 17.3862C15.9356 17.3679 15.9984 17.399 16.0168 17.4562C16.0345 17.5129 16.0034 17.5734 15.9468 17.5918L15.7356 17.659C15.7256 17.6629 15.7145 17.664 15.7034 17.664ZM15.8056 18.0179C15.7551 18.0179 15.7106 17.9829 15.7001 17.9318C15.6884 17.8734 15.7256 17.8168 15.7845 17.8046L15.9823 17.7646C16.044 17.7518 16.0973 17.7907 16.1095 17.849C16.1212 17.9073 16.084 17.964 16.0251 17.9762L15.8273 18.0162L15.8056 18.0179ZM17.3479 15.7234C17.3445 15.7079 17.3329 15.6473 17.2918 15.5734C17.2779 15.5484 17.2462 15.5407 17.214 15.5368C17.174 15.5318 16.8806 15.4896 16.8751 15.549C16.8751 15.549 16.8734 15.6373 16.8323 15.6979C16.7906 15.7584 16.7618 15.9073 16.7512 16.0184C16.7406 16.129 16.6929 16.5468 16.704 16.8396C16.7151 17.1329 16.8056 17.6629 16.8095 17.8396C16.814 18.0162 16.8095 18.2918 16.7718 18.4951C16.734 18.6984 16.694 18.8796 16.6629 18.9912C16.6229 19.1351 16.5695 19.2529 16.5079 19.3351C16.5079 19.3351 16.7395 19.3196 16.9168 18.9768C17.0568 18.7062 17.1351 18.4462 17.1645 18.1929C17.1668 18.1734 17.2273 17.4973 17.2562 17.1596C17.2773 16.9123 17.3129 16.5179 17.3129 16.5179C17.3579 16.0507 17.3684 15.8129 17.3479 15.7234Z" fill="#CCD6DD"/>
<path id="Vector_6" d="M6.22826 18.4349L6.37771 18.291C6.40271 18.271 6.43882 18.276 6.45715 18.3027C6.51382 18.3855 6.65049 18.5477 6.70215 18.6033C6.55771 18.5827 6.33493 18.5749 6.25271 18.5205C6.2216 18.4994 6.19938 18.4583 6.22826 18.4349Z" fill="#8899A6"/>
<path id="Vector_7" d="M7.97482 19.4466C8.0137 19.3561 7.99593 19.1772 7.97648 19.0672C7.96315 18.9916 7.91593 18.7972 7.86204 18.6383C7.83815 18.5666 7.80593 18.4861 7.78648 18.455C7.72648 18.3572 7.6687 18.3233 7.63093 18.3066C7.58537 18.2866 7.54482 18.2944 7.52648 18.3072C7.45204 18.3578 7.34759 18.5322 7.22926 18.6283C7.18982 18.6605 7.14926 18.6839 7.10704 18.6911C6.95537 18.7178 6.68759 18.5889 6.48926 18.4916C6.37037 18.4333 6.27537 18.3866 6.24593 18.3916C6.21315 18.3972 6.18926 18.4133 6.16648 18.435L6.16537 18.4355H6.16593C6.10593 18.4933 6.05537 18.5983 5.87926 18.7089C5.76482 18.78 5.24593 19.1111 5.24593 19.1111C5.11259 19.1928 5.09315 19.2583 5.02204 19.3033C4.87648 19.3961 4.4737 19.6 4.35037 19.68C4.22704 19.76 4.19759 19.8783 4.2087 19.9605C4.21982 20.0428 4.25093 20.0828 4.25093 20.0828C4.25093 20.0828 4.38537 20.2444 5.11148 20.175C5.63648 20.125 5.69204 20.0255 6.42537 19.7511C7.1587 19.4772 7.97482 19.4466 7.97482 19.4466Z" fill="#DD551F"/>
<path id="Vector_8" d="M6.81445 19.601C6.83112 19.461 6.94112 19.1216 7.12279 18.9844C7.28668 18.861 7.77056 18.6733 7.86223 18.6377C7.9189 18.7883 7.97445 19.0283 7.98779 19.106C8.00612 19.2094 8.03001 19.3271 7.99001 19.4133L7.97445 19.446C7.97501 19.4466 7.15168 19.5421 6.81445 19.601Z" fill="#FA743E"/>
<path id="Vector_9" d="M6.19098 18.8905C6.16098 18.8905 6.13042 18.8777 6.10931 18.8532L5.97209 18.6938C5.9332 18.6488 5.9382 18.5805 5.9832 18.5416C6.0282 18.5027 6.09709 18.5077 6.13542 18.5527L6.27264 18.7121C6.31153 18.7571 6.30653 18.8255 6.26153 18.8644C6.24042 18.8821 6.21542 18.8905 6.19098 18.8905ZM5.87153 19.1266C5.83653 19.1266 5.80209 19.1094 5.78098 19.0777L5.65987 18.8921C5.62764 18.8421 5.64153 18.7755 5.69153 18.7427C5.74153 18.7105 5.80764 18.7238 5.84098 18.7738L5.96209 18.9594C5.99431 19.0094 5.98042 19.076 5.93042 19.1088C5.91209 19.121 5.89209 19.1266 5.87153 19.1266ZM5.52875 19.3138C5.48987 19.3138 5.45209 19.2921 5.43264 19.2549L5.34098 19.0749C5.31431 19.0221 5.33542 18.9571 5.3882 18.9299C5.44098 18.9027 5.50542 18.9238 5.5332 18.9771L5.62487 19.1571C5.65153 19.2105 5.63042 19.2749 5.57764 19.3021C5.56209 19.3105 5.54487 19.3138 5.52875 19.3138ZM7.95598 19.9294C7.97042 19.9216 8.02542 19.8949 8.08598 19.8349C8.10598 19.8149 8.10542 19.7821 8.10042 19.7499C8.09487 19.7099 8.05709 19.416 7.9982 19.4266C7.9982 19.4266 7.91264 19.4488 7.8432 19.4249C7.77375 19.401 7.62209 19.4132 7.51264 19.4321C7.4032 19.4516 6.9882 19.5166 6.70875 19.6055C6.42931 19.6944 5.94264 19.9227 5.7732 19.9744C5.60375 20.0255 5.33764 20.0949 5.13098 20.1127C4.92487 20.1305 4.73931 20.1405 4.62375 20.1399C4.47431 20.1399 4.34709 20.1199 4.25098 20.0827C4.25098 20.0827 4.32764 20.3016 4.70542 20.381C5.00375 20.4438 5.27487 20.4499 5.52709 20.4105C5.54598 20.4077 6.21431 20.2855 6.54709 20.2232C6.79098 20.1777 7.18042 20.1066 7.18042 20.1066C7.6432 20.0255 7.87487 19.9727 7.95598 19.9294Z" fill="#CCD6DD"/>
<path id="Vector_10" d="M7.02979 12.3023C7.44701 12.0811 8.82701 11.3839 9.77812 11.3C9.86479 11.2923 9.94368 11.3489 9.97368 11.4306L10.7115 13.45C10.7492 13.5534 10.6965 13.6673 10.5915 13.7006C10.1576 13.8395 9.06923 14.2089 8.24701 14.6556C8.15979 14.7028 8.05423 14.6784 7.99812 14.5967C7.74479 14.2278 7.0859 13.2206 6.92979 12.5078C6.91201 12.4245 6.95479 12.3423 7.02979 12.3023Z" fill="#C63900"/>
<path id="Vector_11" d="M9.73024 14.6601C9.62135 14.2006 9.29412 12.6895 9.4519 11.7479C9.46635 11.6617 9.54079 11.6001 9.62746 11.5917L11.768 11.3862C11.878 11.3756 11.9741 11.4556 11.9802 11.5656C12.0058 12.0201 12.0891 13.1667 12.3141 14.0751C12.338 14.1712 12.2875 14.2673 12.1941 14.3012C11.773 14.4534 10.6325 14.8373 9.90357 14.809C9.81857 14.8051 9.75024 14.7434 9.73024 14.6601Z" fill="#DD551F"/>
<path id="Vector_12" d="M8.34157 6.39892C8.29435 6.73892 8.36935 7.25781 9.15602 7.3917C9.94268 7.52559 10.7182 7.42448 11.051 7.3317C11.3838 7.23892 11.3671 7.82281 11.466 8.3717C11.5655 8.92281 11.6332 9.35392 11.606 9.46781C11.5605 9.66059 11.1566 10.0295 11.3188 10.3634C11.481 10.6973 11.7394 11.0184 12.0588 10.8978C12.3782 10.7773 12.6421 10.6339 12.7271 10.455C12.8121 10.2761 12.4355 9.73559 12.4205 9.58059C12.4055 9.42615 12.5466 7.42059 12.5282 7.19281C12.506 6.91448 12.4849 6.53337 12.0305 6.37615C11.576 6.21837 9.75602 5.86503 9.29991 5.7767C8.77657 5.67392 8.40435 5.94837 8.34157 6.39892ZM7.68102 1.03948C6.65602 0.933923 5.40268 1.80003 5.48157 2.93115C5.59157 4.50948 6.79713 5.53503 7.70991 5.17059C8.66713 4.78837 9.21157 4.40003 9.32713 3.27226C9.44379 2.14448 8.70657 1.14503 7.68102 1.03948Z" fill="#F7DECE"/>
<path id="Vector_13" d="M9.13841 3.60723C10.0412 1.65279 6.84674 2.71168 6.84674 2.71168C6.24007 2.90501 6.9473 3.80834 6.81452 4.44612C6.72452 4.88723 7.61396 4.8589 7.61396 4.8589C7.61396 4.8589 7.99452 4.74668 8.14452 5.20445L8.14563 5.2089C8.18341 5.32557 8.21007 5.46945 8.2073 5.67223C8.1923 6.67668 9.59785 6.89723 9.61174 5.89112C9.6173 5.49279 9.48452 5.18112 9.34619 4.89779L9.33396 4.87279C9.1273 4.45057 8.91563 4.09057 9.13841 3.60723Z" fill="#F7DECE"/>
<path id="Vector_14" d="M8.93297 1.03447C8.3052 0.545579 6.62408 0.428357 5.87186 1.48002C5.16686 1.55169 5.08797 2.26225 5.24797 2.61391C5.37575 2.89502 6.11853 2.76891 6.4552 3.27613C6.54186 3.10113 6.49519 2.80558 6.42519 2.66002C6.71686 2.81725 6.77908 3.42613 7.78908 3.55336C8.7652 3.67613 8.82631 4.49113 8.82631 4.49113C8.82631 4.49113 9.22575 4.14502 9.44242 3.68502C9.85631 2.80613 9.6252 1.57391 8.93297 1.03447Z" fill="#292F33"/>
<path id="Vector_15" d="M10.8108 6.08718C10.383 5.17385 9.69021 4.66496 8.93077 4.99996C7.92577 5.44385 7.57355 6.53107 7.63521 7.5844C7.70299 8.73162 8.49966 9.7644 8.49688 11.8072C8.49688 11.8072 10.2241 12.0566 12.0058 12.0072C12.0058 12.0072 11.8402 8.28551 10.8108 6.08718Z" fill="#FA743E"/>
<path id="Vector_16" d="M9.41103 6.20453C9.09048 6.01286 8.59881 5.88675 8.13103 6.61842C7.66325 7.35008 7.47159 8.14953 7.32714 8.52564C7.19214 8.87675 6.70103 8.63453 6.10825 8.50064C5.51381 8.3662 4.75881 8.13731 4.65603 8.06175C4.48214 7.93453 4.54548 7.5762 4.14214 7.59675C3.73881 7.61731 3.54048 7.57064 3.52548 7.94231C3.51103 8.31397 3.50603 8.6862 3.64881 8.84731C3.79214 9.00842 4.27492 8.86953 4.49103 8.94564C4.65048 9.00175 6.60381 9.98786 6.83992 10.0662C7.12825 10.1618 7.51936 10.3023 7.86992 9.91342C8.22048 9.52453 9.34659 7.85008 9.62936 7.43008C9.95381 6.94842 9.83659 6.45897 9.41103 6.20453Z" fill="#F7DECE"/>
</g>
<defs>
<clipPath id="clip0_446_721">
<rect width="20" height="20" fill="white" transform="translate(0 0.5)"/>
</clipPath>
</defs>
</svg>
