<svg width="20" height="21" viewBox="0 0 20 21" fill="none" xmlns="http://www.w3.org/2000/svg">
<g id="Table Tennis 1" clip-path="url(#clip0_446_780)">
<path id="Vector" d="M12.8369 3.81732C9.78634 0.766767 4.658 0.210656 1.83745 3.03177C-0.983109 5.85232 -0.427553 10.9807 2.623 14.0312C4.59745 16.0057 6.948 16.4329 9.12689 15.7301L9.11856 15.7373L9.19078 15.7084C9.33745 15.6595 9.48356 15.609 9.62856 15.5507C10.0163 15.4184 10.5919 15.2407 11.263 15.1029C12.2897 14.8918 13.2302 15.9951 14.0158 16.7812C14.8013 17.5668 16.3724 19.924 16.7652 20.3168C17.158 20.7095 17.5508 20.3168 17.9441 19.924L18.3369 19.5312L18.7297 19.1384C19.1224 18.7451 19.5152 18.3523 19.1224 17.9595C18.7297 17.5668 16.3724 15.9957 15.5869 15.2101C14.8013 14.4245 13.698 13.484 13.9086 12.4573C14.0186 11.9212 14.1536 11.449 14.2713 11.079C15.368 8.73343 15.1252 6.10566 12.8369 3.81732Z" fill="#DD2E44"/>
<path id="Vector_2" d="M8.64648 15.8639C8.80704 15.825 8.9676 15.7811 9.12648 15.73L9.11815 15.7372L9.19037 15.7083C9.33704 15.6594 9.48315 15.6089 9.62815 15.5506C10.0159 15.4183 10.5915 15.2406 11.2626 15.1028C12.2893 14.8917 13.2298 15.995 14.0154 16.7811C14.8009 17.5667 16.372 19.9239 16.7648 20.3167C17.1576 20.7094 17.5504 20.3167 17.9437 19.9239L18.3365 19.5311L18.7293 19.1383C19.122 18.745 19.5148 18.3522 19.122 17.9594C18.7293 17.5667 16.372 15.9956 15.5865 15.21C14.8009 14.4244 13.6976 13.4839 13.9082 12.4572C14.0182 11.9211 14.1532 11.4489 14.2709 11.0789C14.4693 10.6544 14.6226 10.2217 14.7287 9.78223L8.64648 15.8639Z" fill="#D99E82"/>
<path id="Vector_3" d="M11.2651 13.2455L12.0507 12.46L18.7296 19.1383L17.944 19.9239L11.2651 13.2455Z" fill="#FFCC4D"/>
<path id="Vector_4" d="M17.5001 6.05564C18.574 6.05564 19.4446 5.18508 19.4446 4.11119C19.4446 3.03731 18.574 2.16675 17.5001 2.16675C16.4262 2.16675 15.5557 3.03731 15.5557 4.11119C15.5557 5.18508 16.4262 6.05564 17.5001 6.05564Z" fill="#CCD6DD"/>
</g>
<defs>
<clipPath id="clip0_446_780">
<rect width="20" height="20" fill="white" transform="translate(0 0.5)"/>
</clipPath>
</defs>
</svg>
