<svg width="20" height="21" viewBox="0 0 20 21" fill="none" xmlns="http://www.w3.org/2000/svg">
<g id="Target 1" clip-path="url(#clip0_446_671)">
<path id="Vector" d="M10 20.5C15.5228 20.5 20 16.0228 20 10.5C20 4.97715 15.5228 0.5 10 0.5C4.47715 0.5 0 4.97715 0 10.5C0 16.0228 4.47715 20.5 10 20.5Z" fill="#DD2E44"/>
<path id="Vector_2" d="M10 18C14.1421 18 17.5 14.6421 17.5 10.5C17.5 6.35786 14.1421 3 10 3C5.85786 3 2.5 6.35786 2.5 10.5C2.5 14.6421 5.85786 18 10 18Z" fill="white"/>
<path id="Vector_3" d="M9.99989 16.0554C13.0681 16.0554 15.5554 13.5681 15.5554 10.4999C15.5554 7.43164 13.0681 4.94434 9.99989 4.94434C6.93164 4.94434 4.44434 7.43164 4.44434 10.4999C4.44434 13.5681 6.93164 16.0554 9.99989 16.0554Z" fill="#DD2E44"/>
<path id="Vector_4" d="M9.99984 13.8334C11.8408 13.8334 13.3332 12.341 13.3332 10.5001C13.3332 8.65913 11.8408 7.16675 9.99984 7.16675C8.15889 7.16675 6.6665 8.65913 6.6665 10.5001C6.6665 12.341 8.15889 13.8334 9.99984 13.8334Z" fill="white"/>
<path id="Vector_5" d="M10.0002 12.1666C10.9206 12.1666 11.6668 11.4204 11.6668 10.4999C11.6668 9.57944 10.9206 8.83325 10.0002 8.83325C9.07969 8.83325 8.3335 9.57944 8.3335 10.4999C8.3335 11.4204 9.07969 12.1666 10.0002 12.1666Z" fill="#DD2E44"/>
<path id="Vector_6" opacity="0.2" d="M10.1333 10.6567L17.4356 17.1867C17.4356 17.1867 15.965 19.0623 13.0522 20.0251L9.76611 10.7334L10.1333 10.6567Z" fill="#424753"/>
<path id="Vector_7" d="M10.1635 11.0555C10.0219 11.0555 9.88077 11.0016 9.77243 10.8932C9.55632 10.6771 9.55632 10.3277 9.77243 10.1116L10.0852 9.7988C10.3013 9.58269 10.6508 9.58269 10.8674 9.7988C11.083 10.0149 11.083 10.3644 10.8674 10.5805L10.5541 10.8932C10.4463 11.0016 10.3052 11.0555 10.1635 11.0555Z" fill="#FFAC33"/>
<path id="Vector_8" d="M13.3422 4.37823C13.1183 5.53323 13.3422 6.98434 13.3422 6.98434L17.2611 2.8799C17.4227 2.07212 16.9677 0.695452 16.3066 0.525452C15.6455 0.355452 14.0405 0.971564 13.3422 4.37823ZM16.1216 7.15767C14.9666 7.38156 13.5155 7.15767 13.5155 7.15767L17.62 3.23879C18.4277 3.07712 19.8044 3.53212 19.9744 4.19323C20.1444 4.85434 19.5283 6.45934 16.1216 7.15767Z" fill="#55ACEE"/>
<path id="Vector_9" d="M18.221 2.99159L11.7643 10.2705C11.5632 10.4716 10.8349 10.7605 10.3699 10.296C9.90545 9.83159 10.1371 9.14048 10.3382 8.93881L17.6749 2.44492C17.6749 2.44492 18.0505 2.09215 18.3188 2.36048C18.5871 2.62881 18.221 2.99159 18.221 2.99159Z" fill="#3A87C2"/>
</g>
<defs>
<clipPath id="clip0_446_671">
<rect width="20" height="20" fill="white" transform="translate(0 0.5)"/>
</clipPath>
</defs>
</svg>
