<svg width="20" height="21" viewBox="0 0 20 21" fill="none" xmlns="http://www.w3.org/2000/svg">
<g id="Tennis 1" clip-path="url(#clip0_446_740)">
<path id="Vector" d="M10 20.5C15.5228 20.5 20 16.0228 20 10.5C20 4.97715 15.5228 0.5 10 0.5C4.47715 0.5 0 4.97715 0 10.5C0 16.0228 4.47715 20.5 10 20.5Z" fill="#77B255"/>
<path id="Vector_2" d="M14.4443 10.4999C14.4443 13.8599 15.9954 16.1782 17.6677 16.9143C19.1221 15.1777 19.9999 12.9421 19.9999 10.4999C19.9999 8.05767 19.1221 5.82212 17.6677 4.08545C15.9954 4.82156 14.4443 7.13989 14.4443 10.4999Z" fill="#A6D388"/>
<path id="Vector_3" d="M14.9998 10.5C14.9998 7.14 15.9953 4.82167 17.6676 4.08556C17.4203 3.79056 17.1531 3.51444 16.8742 3.25C15.2253 4.16944 13.8887 6.37667 13.8887 10.5C13.8887 14.6228 15.2253 16.8306 16.8742 17.75C17.1531 17.4856 17.4209 17.2094 17.6676 16.9144C15.9953 16.1783 14.9998 13.86 14.9998 10.5Z" fill="white"/>
<path id="Vector_4" d="M5.55556 10.4999C5.55556 7.13989 4.00444 4.82212 2.33222 4.08545C0.877778 5.82212 0 8.05767 0 10.4999C0 12.9421 0.877778 15.1777 2.33222 16.9143C4.00444 16.1777 5.55556 13.8599 5.55556 10.4999Z" fill="#A6D388"/>
<path id="Vector_5" d="M2.33203 4.08549C4.00425 4.82215 4.99981 7.13993 4.99981 10.4999C4.99981 13.8599 4.00425 16.1777 2.33203 16.9144C2.57925 17.2094 2.84648 17.4849 3.12536 17.7499C4.7737 16.8305 6.11092 14.6227 6.11092 10.4999C6.11092 6.37716 4.77425 4.16938 3.12536 3.25049C2.84648 3.51493 2.5787 3.79049 2.33203 4.08549Z" fill="white"/>
</g>
<defs>
<clipPath id="clip0_446_740">
<rect width="20" height="20" fill="white" transform="translate(0 0.5)"/>
</clipPath>
</defs>
</svg>
