<svg width="20" height="21" viewBox="0 0 20 21" fill="none" xmlns="http://www.w3.org/2000/svg">
<g id="Volleyball 1" clip-path="url(#clip0_446_787)">
<path id="Vector" d="M10 20.5C15.5228 20.5 20 16.0228 20 10.5C20 4.97715 15.5228 0.5 10 0.5C4.47715 0.5 0 4.97715 0 10.5C0 16.0228 4.47715 20.5 10 20.5Z" fill="#E6E7E8"/>
<path id="Vector_2" d="M18.2272 4.82167C17.0294 4.77333 15.2694 4.925 13.6661 5.91389C13.6611 5.91667 13.6556 5.91611 13.6506 5.91889C13.6394 5.925 13.6333 5.93555 13.6228 5.94222C12.4294 6.69111 11.3278 7.90833 10.6167 9.86111C9.28611 9.83389 8.07833 9.70222 7.01222 9.46389C9.32722 2.79444 14.3167 2.62778 16.4994 2.90944C15.9939 2.47611 15.4472 2.09111 14.8617 1.76444C12.0444 1.89778 7.97389 3.215 5.93667 9.17278C4.93833 8.85167 4.09278 8.42278 3.41778 7.88833C3.44611 7.84667 3.47222 7.80222 3.48889 7.75167C5.33556 2.15111 10.2656 0.908333 11.7267 0.658889C11.165 0.561111 10.59 0.5 10 0.5C9.42389 0.5 8.86333 0.559444 8.31389 0.652778C6.23722 1.67167 3.82444 3.56667 2.56056 7.05222C1.94389 6.28889 1.70611 5.54333 1.61667 5.05889C1.33833 5.48722 1.09278 5.93833 0.881667 6.40889C1.11778 6.95555 1.48 7.56111 2.04611 8.15167C3.80611 9.98889 6.76556 10.935 10.8278 10.9783C11.1839 12.22 11.3661 13.36 11.4189 14.3961C4.91111 14.6289 1.61611 11.9439 0.0355556 9.79778C0.0194444 10.0306 0 10.2628 0 10.5C0 10.8272 0.0183333 11.1506 0.0488889 11.47C1.95 13.485 5.21722 15.5239 10.6678 15.5239C10.915 15.5239 11.1717 15.515 11.4278 15.5061C11.3889 16.5783 11.2156 17.5222 10.9739 18.3361C5.68056 18.1939 2.67333 16.4689 1.01167 14.8611C1.52889 15.925 2.22389 16.8839 3.06611 17.6956C4.88556 18.6211 7.33333 19.31 10.6028 19.3783C10.4272 19.7989 10.2394 20.1722 10.0528 20.4972C10.4972 20.495 10.9322 20.455 11.3617 20.3967C12.3772 18.3139 13.1978 14.9767 11.8294 10.4311L11.72 10.0906C12.2256 8.77778 12.9317 7.86222 13.7156 7.23278C16.1961 12.2794 14.885 17.0656 13.6594 19.7994C14.1817 19.5939 14.68 19.3439 15.155 19.0572C16.2811 16.0011 17.0633 11.4217 14.6517 6.62222C15.4317 6.21722 16.2339 6.025 16.9539 5.94833C16.9583 5.95611 16.9583 5.96556 16.9633 5.97333C19.3494 9.69167 18.3 14.3439 16.9228 17.7061C17.8111 16.8528 18.5372 15.8372 19.0633 14.7067C19.8406 11.3378 19.5594 8.33944 18.2211 5.91667C18.4911 5.93167 18.7267 5.95722 18.9144 5.98444C18.7094 5.58111 18.4828 5.19111 18.2272 4.82167Z" fill="#99AAB5"/>
</g>
<defs>
<clipPath id="clip0_446_787">
<rect width="20" height="20" fill="white" transform="translate(0 0.5)"/>
</clipPath>
</defs>
</svg>
